# xmcd
#
# Track frame offsets:
#	150
#	18085
#	32390
#	46380
#	58272
#	74532
#	91330
#	108835
#	125555
#	143432
#	161235
#	174515
#	189450
#	205550
#	220840
#
# Disc length: 3182 seconds
#
# Revision: 1
# Processed by: cddbd v1.5.1PL2 Copyright (c) Steve Scherf et al.
# Submitted via: audiograbber 1.83.01
#
DISCID=ca0c6c0f
DTITLE=Music Maestro - MM6213
DYEAR=1900
DGENRE=Karaoke
TTITLE0=Black, Clint and Martina McBride - Still Holdin' On
TTITLE1=Anderson, John - Somebody Slap Me
TTITLE2=Yoakam, Dwight - Claudette
TTITLE3=Sharp, Kevin - If You Love Somebody
TTITLE4=McGraw, Tim - Just To See You Smile
TTITLE5=Raye, Collin - What The Heart Wants
TTITLE6=Buffalo Club - Nothin' Less Than Love
TTITLE7=Singletary, Daryle - Even The Wind
TTITLE8=Jackson, Alan - There Goes
TTITLE9=Evans, Sara - Three Chords And The Truth
TTITLE10=Murphy, David Lee - All Lit Up In Love
TTITLE11=Burnin' Daylight - Live To Love Again
TTITLE12=Austin, Sherrie - Lucky In Love
TTITLE13=Blake and Brian - Another Perfect Day
TTITLE14=Wright, Chely - Shut Up And Drive
EXTD=As Listed In KJ Pro
EXTT0=
EXTT1=
EXTT2=
EXTT3=
EXTT4=
EXTT5=
EXTT6=
EXTT7=
EXTT8=
EXTT9=
EXTT10=
EXTT11=
EXTT12=
EXTT13=
EXTT14=
PLAYORDER=
